<svg xmlns="http://www.w3.org/2000/svg" width="55" height="77" shape-rendering="crispEdges" viewBox="0 0 40 56"><path d="M0 0h1.6v1.6H0zm1.6 0h1.6v1.6H1.6zm1.6 0h1.6v1.6H3.2zm1.6 0h1.6v1.6H4.8zm1.6 0H8v1.6H6.4zM8 0h1.6v1.6H8zm1.6 0h1.6v1.6H9.6zm8 0h1.6v1.6h-1.6zm8 0h1.6v1.6h-1.6zm3.2 0h1.6v1.6h-1.6zm1.6 0H32v1.6h-1.6zM32 0h1.6v1.6H32zm1.6 0h1.6v1.6h-1.6zm1.6 0h1.6v1.6h-1.6zm1.6 0h1.6v1.6h-1.6zm1.6 0H40v1.6h-1.6zM0 1.6h1.6v1.6H0zm9.6 0h1.6v1.6H9.6zm6.4 0h1.6v1.6H16zm1.6 0h1.6v1.6h-1.6zm4.8 0H24v1.6h-1.6zm1.6 0h1.6v1.6H24zm1.6 0h1.6v1.6h-1.6zm3.2 0h1.6v1.6h-1.6zm9.6 0H40v1.6h-1.6zM0 3.2h1.6v1.6H0zm3.2 0h1.6v1.6H3.2zm1.6 0h1.6v1.6H4.8zm1.6 0H8v1.6H6.4zm3.2 0h1.6v1.6H9.6zm3.2 0h1.6v1.6h-1.6zm4.8 0h1.6v1.6h-1.6zm4.8 0H24v1.6h-1.6zm6.4 0h1.6v1.6h-1.6zm3.2 0h1.6v1.6H32zm1.6 0h1.6v1.6h-1.6zm1.6 0h1.6v1.6h-1.6zm3.2 0H40v1.6h-1.6zM0 4.8h1.6v1.6H0zm3.2 0h1.6v1.6H3.2zm1.6 0h1.6v1.6H4.8zm1.6 0H8v1.6H6.4zm3.2 0h1.6v1.6H9.6zm3.2 0h1.6v1.6h-1.6zm1.6 0H16v1.6h-1.6zm4.8 0h1.6v1.6h-1.6zm1.6 0h1.6v1.6h-1.6zm1.6 0H24v1.6h-1.6zm1.6 0h1.6v1.6H24zm1.6 0h1.6v1.6h-1.6zm3.2 0h1.6v1.6h-1.6zm3.2 0h1.6v1.6H32zm1.6 0h1.6v1.6h-1.6zm1.6 0h1.6v1.6h-1.6zm3.2 0H40v1.6h-1.6zM0 6.4h1.6V8H0zm3.2 0h1.6V8H3.2zm1.6 0h1.6V8H4.8zm1.6 0H8V8H6.4zm3.2 0h1.6V8H9.6zm3.2 0h1.6V8h-1.6zm1.6 0H16V8h-1.6zm3.2 0h1.6V8h-1.6zm8 0h1.6V8h-1.6zm3.2 0h1.6V8h-1.6zm3.2 0h1.6V8H32zm1.6 0h1.6V8h-1.6zm1.6 0h1.6V8h-1.6zm3.2 0H40V8h-1.6zM0 8h1.6v1.6H0zm9.6 0h1.6v1.6H9.6zm3.2 0h1.6v1.6h-1.6zm1.6 0H16v1.6h-1.6zM16 8h1.6v1.6H16zm1.6 0h1.6v1.6h-1.6zM24 8h1.6v1.6H24zm1.6 0h1.6v1.6h-1.6zm3.2 0h1.6v1.6h-1.6zm9.6 0H40v1.6h-1.6zM0 9.6h1.6v1.6H0zm1.6 0h1.6v1.6H1.6zm1.6 0h1.6v1.6H3.2zm1.6 0h1.6v1.6H4.8zm1.6 0H8v1.6H6.4zm1.6 0h1.6v1.6H8zm1.6 0h1.6v1.6H9.6zm3.2 0h1.6v1.6h-1.6zm3.2 0h1.6v1.6H16zm3.2 0h1.6v1.6h-1.6zm3.2 0H24v1.6h-1.6zm3.2 0h1.6v1.6h-1.6zm3.2 0h1.6v1.6h-1.6zm1.6 0H32v1.6h-1.6zm1.6 0h1.6v1.6H32zm1.6 0h1.6v1.6h-1.6zm1.6 0h1.6v1.6h-1.6zm1.6 0h1.6v1.6h-1.6zm1.6 0H40v1.6h-1.6zm-25.6 1.6h1.6v1.6h-1.6zm4.8 0h1.6v1.6h-1.6zm1.6 0h1.6v1.6h-1.6zm3.2 0H24v1.6h-1.6zm1.6 0h1.6v1.6H24zm1.6 0h1.6v1.6h-1.6zM0 12.8h1.6v1.6H0zm3.2 0h1.6v1.6H3.2zm1.6 0h1.6v1.6H4.8zm1.6 0H8v1.6H6.4zm1.6 0h1.6v1.6H8zm1.6 0h1.6v1.6H9.6zm6.4 0h1.6v1.6H16zm1.6 0h1.6v1.6h-1.6zm3.2 0h1.6v1.6h-1.6zm1.6 0H24v1.6h-1.6zm1.6 0h1.6v1.6H24zm4.8 0h1.6v1.6h-1.6zm1.6 0H32v1.6h-1.6zm1.6 0h1.6v1.6H32zm1.6 0h1.6v1.6h-1.6zm1.6 0h1.6v1.6h-1.6zM0 14.4h1.6V16H0zm1.6 0h1.6V16H1.6zm3.2 0h1.6V16H4.8zm1.6 0H8V16H6.4zm1.6 0h1.6V16H8zm3.2 0h1.6V16h-1.6zm1.6 0h1.6V16h-1.6zm1.6 0H16V16h-1.6zm3.2 0h1.6V16h-1.6zm1.6 0h1.6V16h-1.6zm3.2 0H24V16h-1.6zm3.2 0h1.6V16h-1.6zm1.6 0h1.6V16h-1.6zm3.2 0H32V16h-1.6zm6.4 0h1.6V16h-1.6zM0 16h1.6v1.6H0zm3.2 0h1.6v1.6H3.2zM8 16h1.6v1.6H8zm1.6 0h1.6v1.6H9.6zm11.2 0h1.6v1.6h-1.6zm3.2 0h1.6v1.6H24zm3.2 0h1.6v1.6h-1.6zm1.6 0h1.6v1.6h-1.6zm4.8 0h1.6v1.6h-1.6zm3.2 0h1.6v1.6h-1.6zm1.6 0H40v1.6h-1.6zM1.6 17.6h1.6v1.6H1.6zm3.2 0h1.6v1.6H4.8zm3.2 0h1.6v1.6H8zm3.2 0h1.6v1.6h-1.6zm1.6 0h1.6v1.6h-1.6zm1.6 0H16v1.6h-1.6zm1.6 0h1.6v1.6H16zm1.6 0h1.6v1.6h-1.6zm1.6 0h1.6v1.6h-1.6zm8 0h1.6v1.6h-1.6zm1.6 0h1.6v1.6h-1.6zm9.6 0H40v1.6h-1.6zM3.2 19.2h1.6v1.6H3.2zm6.4 0h1.6v1.6H9.6zm1.6 0h1.6v1.6h-1.6zm8 0h1.6v1.6h-1.6zm1.6 0h1.6v1.6h-1.6zm1.6 0H24v1.6h-1.6zm1.6 0h1.6v1.6H24zm1.6 0h1.6v1.6h-1.6zm1.6 0h1.6v1.6h-1.6zm1.6 0h1.6v1.6h-1.6zm1.6 0H32v1.6h-1.6zm1.6 0h1.6v1.6H32zm3.2 0h1.6v1.6h-1.6zm1.6 0h1.6v1.6h-1.6zm1.6 0H40v1.6h-1.6zM0 20.8h1.6v1.6H0zm4.8 0h1.6v1.6H4.8zm1.6 0H8v1.6H6.4zm1.6 0h1.6v1.6H8zm4.8 0h1.6v1.6h-1.6zm3.2 0h1.6v1.6H16zm3.2 0h1.6v1.6h-1.6zm6.4 0h1.6v1.6h-1.6zm1.6 0h1.6v1.6h-1.6zm3.2 0H32v1.6h-1.6zm3.2 0h1.6v1.6h-1.6zm3.2 0h1.6v1.6h-1.6zM0 22.4h1.6V24H0zm3.2 0h1.6V24H3.2zm1.6 0h1.6V24H4.8zm4.8 0h1.6V24H9.6zm1.6 0h1.6V24h-1.6zm1.6 0h1.6V24h-1.6zm1.6 0H16V24h-1.6zm1.6 0h1.6V24H16zm4.8 0h1.6V24h-1.6zm3.2 0h1.6V24H24zm1.6 0h1.6V24h-1.6zm3.2 0h1.6V24h-1.6zm1.6 0H32V24h-1.6zm1.6 0h1.6V24H32zm1.6 0h1.6V24h-1.6zm3.2 0h1.6V24h-1.6zm1.6 0H40V24h-1.6zM0 24h1.6v1.6H0zm4.8 0h1.6v1.6H4.8zM8 24h1.6v1.6H8zm4.8 0h1.6v1.6h-1.6zm9.6 0H24v1.6h-1.6zm8 0H32v1.6h-1.6zm1.6 0h1.6v1.6H32zm6.4 0H40v1.6h-1.6zM0 25.6h1.6v1.6H0zm3.2 0h1.6v1.6H3.2zm1.6 0h1.6v1.6H4.8zm1.6 0H8v1.6H6.4zm1.6 0h1.6v1.6H8zm1.6 0h1.6v1.6H9.6zm1.6 0h1.6v1.6h-1.6zm3.2 0H16v1.6h-1.6zm1.6 0h1.6v1.6H16zm1.6 0h1.6v1.6h-1.6zm1.6 0h1.6v1.6h-1.6zm1.6 0h1.6v1.6h-1.6zm1.6 0H24v1.6h-1.6zm1.6 0h1.6v1.6H24zm1.6 0h1.6v1.6h-1.6zm1.6 0h1.6v1.6h-1.6zm1.6 0h1.6v1.6h-1.6zm1.6 0H32v1.6h-1.6zm1.6 0h1.6v1.6H32zm3.2 0h1.6v1.6h-1.6zm-22.4 1.6h1.6v1.6h-1.6zm1.6 0H16v1.6h-1.6zm3.2 0h1.6v1.6h-1.6zm3.2 0h1.6v1.6h-1.6zm4.8 0h1.6v1.6h-1.6zm6.4 0h1.6v1.6H32zm1.6 0h1.6v1.6h-1.6zM0 28.8h1.6v1.6H0zm1.6 0h1.6v1.6H1.6zm1.6 0h1.6v1.6H3.2zm1.6 0h1.6v1.6H4.8zm1.6 0H8v1.6H6.4zm1.6 0h1.6v1.6H8zm1.6 0h1.6v1.6H9.6zm4.8 0H16v1.6h-1.6zm1.6 0h1.6v1.6H16zm9.6 0h1.6v1.6h-1.6zm3.2 0h1.6v1.6h-1.6zm3.2 0h1.6v1.6H32zm3.2 0h1.6v1.6h-1.6zm1.6 0h1.6v1.6h-1.6zm1.6 0H40v1.6h-1.6zM0 30.4h1.6V32H0zm9.6 0h1.6V32H9.6zm3.2 0h1.6V32h-1.6zm1.6 0H16V32h-1.6zm3.2 0h1.6V32h-1.6zm8 0h1.6V32h-1.6zm6.4 0h1.6V32H32zm1.6 0h1.6V32h-1.6zM0 32h1.6v1.6H0zm3.2 0h1.6v1.6H3.2zm1.6 0h1.6v1.6H4.8zm1.6 0H8v1.6H6.4zm3.2 0h1.6v1.6H9.6zm3.2 0h1.6v1.6h-1.6zm3.2 0h1.6v1.6H16zm1.6 0h1.6v1.6h-1.6zm1.6 0h1.6v1.6h-1.6zm1.6 0h1.6v1.6h-1.6zm3.2 0h1.6v1.6H24zm1.6 0h1.6v1.6h-1.6zm1.6 0h1.6v1.6h-1.6zm1.6 0h1.6v1.6h-1.6zm1.6 0H32v1.6h-1.6zm1.6 0h1.6v1.6H32zm3.2 0h1.6v1.6h-1.6zM0 33.6h1.6v1.6H0zm3.2 0h1.6v1.6H3.2zm1.6 0h1.6v1.6H4.8zm1.6 0H8v1.6H6.4zm3.2 0h1.6v1.6H9.6zm3.2 0h1.6v1.6h-1.6zm4.8 0h1.6v1.6h-1.6zm3.2 0h1.6v1.6h-1.6zm6.4 0h1.6v1.6h-1.6zm1.6 0h1.6v1.6h-1.6zm3.2 0h1.6v1.6H32zm1.6 0h1.6v1.6h-1.6zm1.6 0h1.6v1.6h-1.6zm1.6 0h1.6v1.6h-1.6zm1.6 0H40v1.6h-1.6zM0 35.2h1.6v1.6H0zm3.2 0h1.6v1.6H3.2zm1.6 0h1.6v1.6H4.8zm1.6 0H8v1.6H6.4zm3.2 0h1.6v1.6H9.6zm3.2 0h1.6v1.6h-1.6zm8 0h1.6v1.6h-1.6zm1.6 0H24v1.6h-1.6zm1.6 0h1.6v1.6H24zm1.6 0h1.6v1.6h-1.6zm1.6 0h1.6v1.6h-1.6zm6.4 0h1.6v1.6h-1.6zm1.6 0h1.6v1.6h-1.6zm3.2 0H40v1.6h-1.6zM0 36.8h1.6v1.6H0zm9.6 0h1.6v1.6H9.6zm6.4 0h1.6v1.6H16zm1.6 0h1.6v1.6h-1.6zm1.6 0h1.6v1.6h-1.6zm4.8 0h1.6v1.6H24zm1.6 0h1.6v1.6h-1.6zm1.6 0h1.6v1.6h-1.6zm1.6 0h1.6v1.6h-1.6zm1.6 0H32v1.6h-1.6zm1.6 0h1.6v1.6H32zm1.6 0h1.6v1.6h-1.6zm4.8 0H40v1.6h-1.6zM0 38.4h1.6V40H0zm1.6 0h1.6V40H1.6zm1.6 0h1.6V40H3.2zm1.6 0h1.6V40H4.8zm1.6 0H8V40H6.4zm1.6 0h1.6V40H8zm1.6 0h1.6V40H9.6zm3.2 0h1.6V40h-1.6zm6.4 0h1.6V40h-1.6zm1.6 0h1.6V40h-1.6zm1.6 0H24V40h-1.6zm8 0H32V40h-1.6zm1.6 0h1.6V40H32zm1.6 0h1.6V40h-1.6zm1.6 0h1.6V40h-1.6zm1.6 0h1.6V40h-1.6zm1.6 0H40V40h-1.6zM0 43.2v-1.6h1.6v1.6zm1.6 0v-1.6h1.6v1.6zm1.6 0v-1.6h1.6v1.6zm1.6 0v-1.6h1.6v1.6zm1.6 0v-1.6H8v1.6zM0 44.8v-1.6h1.6v1.6zm8 0v-1.6h1.6v1.6zm-8 1.6v-1.6h1.6v1.6zm8 0v-1.6h1.6v1.6zM0 48v-1.6h1.6V48zm8 0v-1.6h1.6V48zm-8 1.6V48h1.6v1.6zm8 0V48h1.6v1.6zm-8 1.6v-1.6h1.6v1.6zm1.6 0v-1.6h1.6v1.6zm1.6 0v-1.6h1.6v1.6zm1.6 0v-1.6h1.6v1.6zm1.6 0v-1.6H8v1.6zM0 52.8v-1.6h1.6v1.6zm0 1.6v-1.6h1.6v1.6zM0 56v-1.6h1.6V56zM14.4 43.2v-1.6H16v1.6zm1.6 0v-1.6h1.6v1.6zm1.6 0v-1.6h1.6v1.6zm1.6 0v-1.6h1.6v1.6zm-6.4 1.6v-1.6h1.6v1.6zm0 1.6v-1.6h1.6v1.6zm0 1.6v-1.6h1.6V48zm0 1.6V48h1.6v1.6zm0 1.6v-1.6h1.6v1.6z"/></svg>
